<?xml version="1.0" standalone="no"?>
<!DOCTYPE svg PUBLIC "-//W3C//DTD SVG 20010904//EN"
 "http://www.w3.org/TR/2001/REC-SVG-20010904/DTD/svg10.dtd">
<svg version="1.0" xmlns="http://www.w3.org/2000/svg"
 width="260.000000pt" height="260.000000pt" viewBox="0 0 260.000000 260.000000"
 preserveAspectRatio="xMidYMid meet">
<metadata>
Created by potrace 1.11, written by Peter Selinger 2001-2013
</metadata>
<g transform="translate(0.000000,260.000000) scale(0.100000,-0.100000)"
fill="#000000" stroke="none">
<path d="M580 2506 c-128 -27 -216 -73 -309 -162 -37 -34 -64 -64 -61 -67 7
-7 749 -377 755 -377 3 0 4 125 3 278 l-3 277 -81 27 c-100 34 -214 43 -304
24z"/>
<path d="M1812 2509 c-29 -5 -79 -19 -110 -32 l-57 -22 -3 -278 c-1 -152 0
-277 3 -277 15 0 745 371 745 379 0 15 -124 125 -172 154 -111 65 -286 98
-406 76z"/>
<path d="M1451 2303 c-79 -92 -141 -243 -141 -341 0 -23 -4 -44 -10 -47 -6 -4
-10 12 -10 40 0 103 -61 256 -138 346 l-37 43 -5 -319 -5 -320 -487 -3 c-269
-1 -488 -5 -488 -7 0 -3 15 -36 34 -73 42 -83 117 -189 186 -265 l52 -57 354
0 354 0 0 -364 0 -363 46 -69 c57 -84 108 -189 125 -255 7 -27 16 -49 19 -49
3 0 12 22 19 49 18 71 69 173 135 268 l56 82 0 351 0 350 346 0 345 0 37 41
c68 76 152 193 192 271 22 42 40 79 40 82 0 3 -216 6 -480 6 l-480 0 0 325 c0
192 -4 325 -9 325 -5 0 -28 -21 -50 -47z"/>
<path d="M2055 2026 l-370 -184 148 -1 147 -1 250 125 c138 69 250 130 250
136 0 16 -42 109 -49 109 -3 -1 -172 -83 -376 -184z"/>
<path d="M101 2040 c-6 -28 -11 -57 -11 -65 0 -9 50 -40 120 -75 l120 -60 147
1 148 0 -245 124 c-135 68 -250 124 -257 124 -6 1 -16 -22 -22 -49z"/>
<path d="M90 1860 c0 -17 7 -20 43 -20 l42 1 -35 19 c-45 24 -50 24 -50 0z"/>
<path d="M2470 1860 l-35 -19 38 -1 c30 0 37 3 37 20 0 11 -1 20 -2 20 -2 -1
-19 -9 -38 -20z"/>
<path d="M605 1153 c-16 -8 -32 -17 -34 -20 -8 -6 82 -93 96 -93 15 0 253 118
253 125 0 3 -64 5 -142 5 -111 -1 -150 -4 -173 -17z"/>
<path d="M2004 1155 c25 -19 40 -19 56 0 11 13 6 15 -31 15 -41 -1 -43 -2 -25
-15z"/>
<path d="M842 1047 c-67 -34 -121 -64 -120 -67 2 -3 58 -59 126 -124 l122
-120 0 187 c0 103 -1 187 -2 186 -2 0 -58 -28 -126 -62z"/>
<path d="M1640 929 l0 -182 118 114 c64 62 118 117 120 121 2 4 -51 34 -117
68 l-121 60 0 -181z"/>
</g>
</svg>
